<?xml version="1.0"?><svg version="1.2" baseProfile="tiny-ps" viewBox="0 0 256 256" xmlns="http://www.w3.org/2000/svg" xmlns:xlink="http://www.w3.org/1999/xlink"><title>gtaw</title><g><g fill="#f7f7f7" transform="matrix(.1 0 0 -.1 0 256)"><path d="M780 2216v-95l-323-3-324-3-41-27-41-28-26-44-26-44 3-418 3-419 21-40 21-40 53-32 54-33h226v-20H0V580h187v-87l22-36 21-35 42-17 42-16 35 6c19 4 53 16 74 27l39 20 67 69 68 69h78l13-77 12-78 18-24c28-38 64-61 104-67l37-6 25 25 26 26v70l9 5 9 6 13-17c31-36 118-55 159-33l18 10 11 32c5 18 13 54 17 81l6 47 40-40 39-41-21-26c-24-31-25-51-4-81l15-22h52l61 39c112 70 273 144 359 165l27 6v-36l28-26c35-33 65-48 95-48h24l24 19 25 19 24 54c14 29 29 57 35 61l10 8 90-5 90-5 49-17 48-17 20-32 19-33 24-6 25-6 30 15 30 15 15 30 15 29v68l-26 39c-15 21-34 44-43 51-9 6-25 18-35 26l-19 14 32 46c17 25 49 83 72 129l40 83-4 53-4 52-21 23-22 23v180l36 42 35 42-3 32-3 33-31 20-32 20-3 201-4 201-27 39c-34 48-81 81-144 100l-47 14h-402l-45-11c-25-5-62-21-82-34-21-14-40-25-43-25s-5 13-5 30v30l-187 2-188 3-3 93-3 92H780v-94zm291-1248-9-23-23 3c-13 1-41 4-61 5l-38 2v11c0 20 13 24 76 24h63l-8-22z"/></g><g fill="#febc00" transform="matrix(.1 0 0 -.1 0 256)"><path d="M780 2216v-95l-323-3-324-3-41-27-41-28-26-44-26-44 3-418 3-419 21-40 21-40 53-32 54-33h226v-20H0V580h187v-87l22-36 21-35 42-17 42-16 35 6c19 4 53 16 74 27l39 20 67 69 68 69h78l13-77 12-78 18-24c28-38 64-61 104-67l37-6 25 25 26 26v70l9 5 9 6 13-17c31-36 118-55 159-33l18 10 11 32c5 18 13 54 17 81l6 47 40-40 39-41-21-26c-24-31-25-51-4-81l15-22h52l61 39c112 70 273 144 359 165l27 6v-36l28-26c35-33 65-48 95-48h24l24 19 25 19 24 54c14 29 29 57 35 61l10 8 90-5 90-5 49-17 48-17 20-32 19-33 24-6 25-6 30 15 30 15 15 30 15 29v68l-26 39c-15 21-34 44-43 51-9 6-25 18-35 26l-19 14 32 46c17 25 49 83 72 129l40 83-4 53-4 52-21 23-22 23v180l36 42 35 42-3 32-3 33-31 20-32 20-3 201-4 201-27 39c-34 48-81 81-144 100l-47 14h-402l-45-11c-25-5-62-21-82-34-21-14-40-25-43-25s-5 13-5 30v30l-187 2-188 3-3 93-3 92H780v-94zm380-81v-95h380v-230h-380v-500h70v430h311l-3-112-3-113-35-5c-19-3-59-19-88-35l-52-28-45-48-45-48v348l123 4 122 3-127 2-128 2v-372l-17-29-17-29-36-1-35-2 28-4c16-3 27-7 25-11s-20-40-41-79l-37-73H965l-32 20-33 20v1050h219l3-97 3-98 184-3 185-2 10 10 10 10h-384v190H880V1163l19-25 20-24 39-12 39-12h124l-6-10-6-10H969l-33 14-33 14-21 27-22 28v1077h300v-95zm1053-96 38-10 34-31 35-30v-405l-24-13c-43-23-111-137-174-292l-12-28h-28l19 73c10 39 19 89 19 110v38l-15 30-16 30-32 19-32 20h-53l-49-34c-26-18-58-36-71-40l-22-7-22 15-22 16h-55l-20-26-21-26-5 14c-4 9-5 42-3 74l3 58 34 23 34 23h275l12 15 13 16v138l-13 16-12 15h-89l6-10 6-10h89v-158l-16-6c-9-3-78-6-154-6h-139l-35-34-36-33v-104l-11 7-11 7 4 55 5 55 31 28 31 28 38 10 38 11h235v120h-80v-60h-300v201l14 28c16 30 54 59 95 71l26 8 200 1 200 1 38-11zM760 1561v-479l-55-54c-31-29-106-114-168-188L425 705l-157-3-158-3v161h366l12 12 12 12v191l-8 13-9 13-151 2-151 2-28 21-28 21-6 24c-4 13-7 190-8 392l-1 368 15 28c8 16 22 31 30 35 9 3 142 6 296 6h279v20H179l-22-11c-12-6-30-21-39-33l-18-21v-774l10-25 10-26 32-20 33-20h293l6-16c3-9 6-53 6-98v-82l-12-12-12-12H99l3-92 3-93 143-3 143-3-6-9-6-10H80v230h380v180H173l-34 23c-18 12-39 34-46 47l-13 25v790l19 29c11 16 30 35 43 42l23 13 298 1h297v-479zm980-274 24-17h98l-5-14c-3-8-11-33-18-55l-12-42-31 8c-40 9-65 9-93-1l-23-7v121h-23l5-70 5-70h-7c-14 0-20 31-20 100v68l28 10 27 10 10-12c6-7 21-20 35-29zm-202-83-4-63-18-20-19-21h-38l6 10 7 11-53-7-52-7 8 14c24 41 99 131 128 153l32 26 4-17c2-9 1-45-1-79zm-467-236-9-23-23 3c-13 1-41 4-61 5l-38 2v11c0 20 13 24 76 24h63l-8-22zM680 680c0-5-5-10-11-10h-10l6 10c3 6 8 10 11 10 2 0 4-4 4-10zm480 1160v-10h351l-6 10-6 10h-339v-10zm599 181c-46-15-69-31-84-62l-16-30 3-82 3-82 123-3 122-3v21h-230v166l15 20c8 12 27 27 43 33l29 12 236-3 236-3-10 10-10 10-217 2-217 2-26-8zM490 1560v-279l-72-4-73-3 78-2 77-2v285c0 157-2 285-5 285s-5-126-5-280zm-110-6v-255l43 3 42 3 3 253 2 252h-90v-256z"/></g><g fill="#9f9f9f" transform="matrix(.1 0 0 -.1 0 256)"><path d="M780 2216v-95l-323-3-324-3-41-27-41-28-26-44-26-44 3-418 3-419 21-40 21-40 53-32 54-33h226v-20H0V580h187v-87l22-36 21-35 42-17 42-16 35 6c19 4 53 16 74 27l39 20 67 69 68 69h78l13-77 12-78 18-24c28-38 64-61 104-67l37-6 25 25 26 26v70l9 5 9 6 13-17c31-36 118-55 159-33l18 10 11 32c5 18 13 54 17 81l6 47 40-40 39-41-21-26c-24-31-25-51-4-81l15-22h52l61 39c112 70 273 144 359 165l27 6v-36l28-26c35-33 65-48 95-48h24l24 19 25 19 24 54c14 29 29 57 35 61l10 8 90-5 90-5 49-17 48-17 20-32 19-33 24-6 25-6 30 15 30 15 15 30 15 29v68l-26 39c-15 21-34 44-43 51-9 6-25 18-35 26l-19 14 32 46c17 25 49 83 72 129l40 83-4 53-4 52-21 23-22 23v180l36 42 35 42-3 32-3 33-31 20-32 20-3 201-4 201-27 39c-34 48-81 81-144 100l-47 14h-402l-45-11c-25-5-62-21-82-34-21-14-40-25-43-25s-5 13-5 30v30l-187 2-188 3-3 93-3 92H780v-94zm380-81v-95h380v-230h-380v-500h70v430h311l-3-112-3-113-35-5c-19-3-59-19-88-35l-52-28-45-48-45-48v348l123 4 122 3-127 2-128 2v-372l-17-29-17-29-36-1-35-2 28-4c16-3 27-7 25-11s-20-40-41-79l-37-73H965l-32 20-33 20v1050h219l3-97 3-98 184-3 185-2 10 10 10 10h-384v190H880V1163l19-25 20-24 39-12 39-12h124l-6-10-6-10H969l-33 14-33 14-21 27-22 28v1077h300v-95zm1053-96 38-10 34-31 35-30v-405l-24-13c-43-23-111-137-174-292l-12-28h-28l19 73c10 39 19 89 19 110v38l-15 30-16 30-32 19-32 20h-53l-49-34c-26-18-58-36-71-40l-22-7-22 15-22 16h-55l-20-26-21-26-5 14c-4 9-5 42-3 74l3 58 34 23 34 23h275l12 15 13 16v138l-13 16-12 15h-89l6-10 6-10h89v-158l-16-6c-9-3-78-6-154-6h-139l-35-34-36-33v-104l-11 7-11 7 4 55 5 55 31 28 31 28 38 10 38 11h235v120h-80v-60h-300v201l14 28c16 30 54 59 95 71l26 8 200 1 200 1 38-11zM760 1561v-479l-55-54c-31-29-106-114-168-188L425 705l-157-3-158-3v161h366l12 12 12 12v191l-8 13-9 13-151 2-151 2-28 21-28 21-6 24c-4 13-7 190-8 392l-1 368 15 28c8 16 22 31 30 35 9 3 142 6 296 6h279v20H179l-22-11c-12-6-30-21-39-33l-18-21v-774l10-25 10-26 32-20 33-20h293l6-16c3-9 6-53 6-98v-82l-12-12-12-12H99l3-92 3-93 143-3 143-3-6-9-6-10H80v230h380v180H173l-34 23c-18 12-39 34-46 47l-13 25v790l19 29c11 16 30 35 43 42l23 13 298 1h297v-479zm1650-58c0-3-13-27-30-52-79-124-149-315-171-474l-12-82 7-28 6-27h11c5 0 21 12 36 26l25 25-5 32-5 32 25 68 24 68-3 27-3 27 26 3 26 3 18-17 17-17-6-31c-8-43-68-161-111-219l-36-48-23-10-24-11-28 14-29 13-9 55-9 54 12 84c6 46 10 87 7 89-9 9-56-49-82-103-28-58-40-119-30-158l6-26h13c7 0 23 9 35 20l22 21v-10c0-6-10-19-22-31l-22-20h-75l-16 17-17 16 4 71 4 71 26 56 25 56 37 36 37 37 38 6 39 6 27 77c15 42 43 106 62 144l36 68 29 24 30 25h29c16 0 29-3 29-7zm-375-43 18-20-6-47c-3-27-29-122-57-213s-67-226-86-300l-36-135-4-95c-2-52-4-98-4-102 0-5-4-8-10-8h-10l-1 63-1 62-10-27-10-28h-41l7 73c10 107 49 267 120 497 35 113 62 207 61 208-2 2-24-8-49-23l-46-27-46-1h-47l-13 18c-16 22-18 61-5 70l10 5 6-10 6-10h105l50 35c56 40 74 43 99 15zm-420-34c14-9 25-21 25-26v-10h-81l-42-21-42-22-60-62-60-62-49-84c-91-153-184-398-224-589l-18-85-24 3c-14 2-35 10-47 17l-21 14-11 51-11 51v199h-9c-4 0-23-26-40-57-44-80-35-52 19 56l45 90 21 1c11 0 28-6 38-13l18-13-12-105c-6-57-13-126-16-154l-4-50 30 100c76 245 105 327 155 431 62 132 99 190 169 263l51 53 50 25 50 24 38-5c21-2 49-11 62-20zm125-139 24-17h98l-5-14c-3-8-11-33-18-55l-12-42-31 8c-40 9-65 9-93-1l-23-7v121h-23l5-70 5-70h-7c-14 0-20 31-20 100v68l28 10 27 10 10-12c6-7 21-20 35-29zm-202-83-4-63-18-20-19-21h-38l6 10 7 11-53-7-52-7 8 14c24 41 99 131 128 153l32 26 4-17c2-9 1-45-1-79zm259-107c1-2-4-35-11-73-8-38-17-95-21-126l-6-58h-20c-11 0-30 5-41 11l-20 11 6 61c4 34 10 73 13 86l6 24-10-6c-17-11-69-129-88-199l-17-67-13-11-14-11-11 21-12 22 7 51c7 49 23 109 40 150l7 17h-61l-6 10-6 9 29 15c16 8 34 22 41 30 8 9 22 16 32 16h19v-14c0-8-5-27-10-42-14-36-4-44 18-13 9 13 32 41 51 62l35 39 30-6c16-4 31-8 33-9zm-325-71c10-7 22-26 28-42l11-29-7-50c-3-27-17-84-30-125l-24-75-32-50-33-49-35-24-35-23-35 6-35 6-11 15c-7 8-15 34-18 57l-6 42 10 54c12 67 48 145 84 189 32 37 36 38 66 14l22-18-31-59c-17-32-38-83-47-111l-15-53 3-48 3-48 23-3 23-3 28 30 29 31-5 41-6 41 28 89c16 49 32 89 37 89h8v-61l10 6 10 6v97l-15 12-16 13-22-21-22-21-17 10-18 10v22c0 13 5 28 12 35l12 12h26c14 0 33-6 42-14zm-598-31c0-16-10-75-22-130-11-55-24-142-27-194l-7-94 10 7 10 6-6-46-5-45 13-24 13-23-7-26-6-26h-13c-7 0-22 7-34 15l-22 16-10 37c-5 20-13 66-16 102l-7 65 12 144c6 79 9 145 6 148-2 2-17-17-32-44-53-90-169-247-237-319l-68-72-33-16c-19-9-47-16-62-16h-28l-23 22-23 21v53l14 20 15 19 12-12 13-13h63l46 35 45 35 123 147c67 82 145 170 172 196l50 48 36-3 36-3-1-30zm197-27-9-23-23 3c-13 1-41 4-61 5l-38 2v11c0 20 13 24 76 24h63l-8-22zm1149-224c41-7 76-13 77-13 1-1 18-15 38-32l35-31v-77l-10-6-10-6-25 29-25 29-52 24-53 23-147 1c-82 0-148 3-148 6 0 4 3 21 6 38l6 31 83-6 82-7 19 11 19 11 15-6c8-3 49-12 90-19zm-490-62v-28l-87-28c-89-28-230-92-313-141l-45-26 40 35c50 44 176 120 258 154 34 15 64 30 67 34 7 9 50 26 68 27l12 1v-28zm-1050-2c0-5-5-10-11-10h-10l6 10c3 6 8 10 11 10 2 0 4-4 4-10zm176-46c-8-21-15-34-15-28-1 15 20 76 25 71 2-2-2-21-10-43zm304 1206v-10h351l-6 10-6 10h-339v-10zm599 181c-46-15-69-31-84-62l-16-30 3-82 3-82 123-3 122-3v21h-230v166l15 20c8 12 27 27 43 33l29 12 236-3 236-3-10 10-10 10-217 2-217 2-26-8zM490 1560v-279l-72-4-73-3 78-2 77-2v285c0 157-2 285-5 285s-5-126-5-280zm-110-6v-255l43 3 42 3 3 253 2 252h-90v-256z"/></g><g fill="#cb8600" transform="matrix(.1 0 0 -.1 0 256)"><path d="M780 2216v-95l-323-3-324-3-41-27-41-28-26-44-26-44 3-418 3-419 21-40 21-40 53-32 54-33h226v-20H0V580h187v-87l22-36 21-35 42-17 42-16 35 6c19 4 53 16 74 27l39 20 67 69 68 69h78l13-77 12-78 18-24c28-38 64-61 104-67l37-6 25 25 26 26v70l9 5 9 6 13-17c31-36 118-55 159-33l18 10 11 32c5 18 13 54 17 81l6 47 40-40 39-41-21-26c-24-31-25-51-4-81l15-22h52l61 39c112 70 273 144 359 165l27 6v-36l28-26c35-33 65-48 95-48h24l24 19 25 19 24 54c14 29 29 57 35 61l10 8 90-5 90-5 49-17 48-17 20-32 19-33 24-6 25-6 30 15 30 15 15 30 15 29v68l-26 39c-15 21-34 44-43 51-9 6-25 18-35 26l-19 14 32 46c17 25 49 83 72 129l40 83-4 53-4 52-21 23-22 23v180l36 42 35 42-3 32-3 33-31 20-32 20-3 201-4 201-27 39c-34 48-81 81-144 100l-47 14h-402l-45-11c-25-5-62-21-82-34-21-14-40-25-43-25s-5 13-5 30v30l-187 2-188 3-3 93-3 92H780v-94zm380-71v-95h380v-250h-380v-490h70v430h310v-227l-37-7c-119-19-240-143-353-363l-42-83-61 1h-62l-44 17-44 17-21 28-21 28-3 532c-1 292 0 537 2 544l5 13h301v-95zm1088-114c20-10 46-29 57-41l20-22 3-203 3-203-20-7c-45-14-120-131-166-260-18-50-38-75-61-75h-11l23 91c29 110 29 125 4 166-21 35-52 58-90 68l-25 6-63-40-63-41h-20c-11 0-31 7-44 16l-24 16-21-7c-11-4-29-16-40-27l-18-20-26 18-25 19v55l-1 55 18 22c9 11 33 31 52 42l35 21h275v120h-80v-60h-300v218l27 33c15 17 41 38 58 45l30 13 228 1h228l37-19zM770 1564v-476l-58-57c-32-31-102-110-156-176-55-66-115-137-135-157l-36-37-152-1H80v240h380v170H169l-29 15c-16 8-36 25-44 37l-16 22v828l34 34 34 34h622v-476zm1640-61c0-3-13-27-30-52-79-124-149-315-171-474l-12-82 7-28 6-27h11c5 0 21 12 36 26l25 25-5 32-5 32 25 68 24 68-3 27-3 27 26 3 26 3 18-17 17-17-6-31c-8-43-68-161-111-219l-36-48-23-10-24-11-28 14-29 13-9 55-9 54 12 84c6 46 10 87 7 89-9 9-56-49-82-103-28-58-40-119-30-158l6-26h13c7 0 23 9 35 20l22 21v-10c0-6-10-19-22-31l-22-20h-75l-16 17-17 16 4 71 4 71 26 56 25 56 37 36 37 37 38 6 39 6 27 77c15 42 43 106 62 144l36 68 29 24 30 25h29c16 0 29-3 29-7zm-375-43 18-20-6-47c-3-27-29-122-57-213s-67-226-86-300l-36-135-4-95c-2-52-4-98-4-102 0-5-4-8-10-8h-10l-1 63-1 62-10-27-10-28h-41l7 73c10 107 49 267 120 497 35 113 62 207 61 208-2 2-24-8-49-23l-46-27-46-1h-47l-13 18c-16 22-18 61-5 70l10 5 6-10 6-10h105l50 35c56 40 74 43 99 15zm-420-34c14-9 25-21 25-26v-10h-81l-42-21-42-22-60-62-60-62-49-84c-91-153-184-398-224-589l-18-85-24 3c-14 2-35 10-47 17l-21 14-11 51-11 51v199h-9c-4 0-23-26-40-57-44-80-35-52 19 56l45 90 21 1c11 0 28-6 38-13l18-13-12-105c-6-57-13-126-16-154l-4-50 30 100c76 245 105 327 155 431 62 132 99 190 169 263l51 53 50 25 50 24 38-5c21-2 49-11 62-20zm150-146c15-6 42-10 61-10h34v-8c0-5-7-32-15-60l-16-51-25 9c-14 6-40 10-57 10h-32l-25-20-25-19-12 11-13 10v164l28 10 27 10 22-23c12-13 34-28 48-33zm-225-57v-77l-26-27-26-28-26 10-25 10-31-7c-17-3-39-14-50-23l-18-16 23 40c52 90 143 193 172 195h7v-77zm257-126c1-2-4-35-11-73-8-38-17-95-21-126l-6-58h-20c-11 0-30 5-41 11l-20 11 6 61c4 34 10 73 13 86l6 24-10-6c-17-11-69-129-88-199l-17-67-13-11-14-11-11 21-12 22 7 51c7 49 23 109 40 150l7 17h-61l-6 10-6 9 29 15c16 8 34 22 41 30 8 9 22 16 32 16h19v-14c0-8-5-27-10-42-14-36-4-44 18-13 9 13 32 41 51 62l35 39 30-6c16-4 31-8 33-9zm-325-71c10-7 22-26 28-42l11-29-7-50c-3-27-17-84-30-125l-24-75-32-50-33-49-35-24-35-23-35 6-35 6-11 15c-7 8-15 34-18 57l-6 42 10 54c12 67 48 145 84 189 32 37 36 38 66 14l22-18-31-59c-17-32-38-83-47-111l-15-53 3-48 3-48 23-3 23-3 28 30 29 31-5 41-6 41 28 89c16 49 32 89 37 89h8v-61l10 6 10 6v97l-15 12-16 13-22-21-22-21-17 10-18 10v22c0 13 5 28 12 35l12 12h26c14 0 33-6 42-14zm-598-31c0-16-10-75-22-130-11-55-24-142-27-194l-7-94 10 7 10 6-6-46-5-45 13-24 13-23-7-26-6-26h-13c-7 0-22 7-34 15l-22 16-10 37c-5 20-13 66-16 102l-7 65 12 144c6 79 9 145 6 148-2 2-17-17-32-44-53-90-169-247-237-319l-68-72-33-16c-19-9-47-16-62-16h-28l-23 22-23 21v53l14 20 15 19 12-12 13-13h63l46 35 45 35 123 147c67 82 145 170 172 196l50 48 36-3 36-3-1-30zm197-27-9-23-23 3c-13 1-41 4-61 5l-38 2v11c0 20 13 24 76 24h63l-8-22zm1149-224c41-7 76-13 77-13 1-1 18-15 38-32l35-31v-77l-10-6-10-6-25 29-25 29-52 24-53 23-147 1c-82 0-148 3-148 6 0 4 3 21 6 38l6 31 83-6 82-7 19 11 19 11 15-6c8-3 49-12 90-19zm-490-62v-28l-87-28c-89-28-230-92-313-141l-45-26 40 35c50 44 176 120 258 154 34 15 64 30 67 34 7 9 50 26 68 27l12 1v-28zM675 671c-3-6-11-11-17-11h-10l12 15c14 17 26 13 15-4zm181-37c-8-21-15-34-15-28-1 15 20 76 25 71 2-2-2-21-10-43zm-476 926v-250h80v500h-80v-250z"/></g><g fill="#5c4724" transform="matrix(.1 0 0 -.1 0 256)"><path d="M780 2216v-95l-323-3-324-3-41-27-41-28-26-44-26-44 3-418 3-419 21-40 21-40 53-32 54-33h226v-20H0V580h187v-87l22-36 21-35 42-17 42-16 35 6c19 4 53 16 74 27l39 20 67 69 68 69h78l13-77 12-78 18-24c28-38 64-61 104-67l37-6 25 25 26 26v70l9 5 9 6 13-17c31-36 118-55 159-33l18 10 11 32c5 18 13 54 17 81l6 47 40-40 39-41-21-26c-24-31-25-51-4-81l15-22h52l61 39c112 70 273 144 359 165l27 6v-36l28-26c35-33 65-48 95-48h24l24 19 25 19 24 54c14 29 29 57 35 61l10 8 90-5 90-5 49-17 48-17 20-32 19-33 24-6 25-6 30 15 30 15 15 30 15 29v68l-26 39c-15 21-34 44-43 51-9 6-25 18-35 26l-19 14 32 46c17 25 49 83 72 129l40 83-4 53-4 52-21 23-22 23v180l36 42 35 42-3 32-3 33-31 20-32 20-3 201-4 201-27 39c-34 48-81 81-144 100l-47 14h-402l-45-11c-25-5-62-21-82-34-21-14-40-25-43-25s-5 13-5 30v30l-187 2-188 3-3 93-3 92H780v-94zm380-71v-95h380v-250h-380v-490h70v430h310v-227l-37-7c-119-19-240-143-353-363l-42-83-61 1h-62l-44 17-44 17-21 28-21 28-3 532c-1 292 0 537 2 544l5 13h301v-95zm1088-114c20-10 46-29 57-41l20-22 3-203 3-203-20-7c-45-14-120-131-166-260-18-50-38-75-61-75h-11l23 91c29 110 29 125 4 166-21 35-52 58-90 68l-25 6-63-40-63-41h-20c-11 0-31 7-44 16l-24 16-21-7c-11-4-29-16-40-27l-18-20-26 18-25 19v55l-1 55 18 22c9 11 33 31 52 42l35 21h275v120h-80v-60h-300v218l27 33c15 17 41 38 58 45l30 13 228 1h228l37-19zM770 1564v-476l-58-57c-32-31-102-110-156-176-55-66-115-137-135-157l-36-37-152-1H80v240h380v170H169l-29 15c-16 8-36 25-44 37l-16 22v828l34 34 34 34h622v-476zm1649-60c1-1-8-18-22-36-41-53-102-185-137-293l-32-100-12-85-12-85 5-25 5-25 6 25c3 14 17 45 32 70s36 69 48 99l21 55-6 23-5 23h66l12-12 12-12v-60l-41-83-41-83-45-50-45-50h-27c-15 0-35 6-45 13l-18 13-7 54-7 55-7-28c-4-16-5-37-2-47l6-18-32-27-32-27-36 7c-20 4-43 13-51 21l-15 15 1 69v68l32 64 31 63 34 33 35 34 39 5 40 5 18 57c24 77 60 157 96 212l30 47 32 16 32 15 20-6c11-3 22-7 24-9zm-384-39c14-13 25-30 25-37 0-25-38-165-89-333-50-162-92-330-105-422l-6-43h41l-6-22c-10-33-34-68-51-75l-14-5-27 17-26 17 6 112 6 111 35 135c19 74 58 207 85 295 28 87 51 163 51 169v9l-18-16c-26-24-87-47-123-47h-32l-19 17-18 16v69l23-8c12-4 43-8 68-8l46-1 54 38c29 20 57 37 61 37 5 0 20-11 33-25zm-425-30c17-9 30-17 30-19 0-3 3-12 6-21l7-16-36 6-35 7-46-20-45-21-51-47-51-48-55-82c-67-101-122-219-178-383-37-109-52-162-82-308l-4-23h-21c-11 0-33 7-49 15l-29 15-11 40c-6 22-14 88-18 147l-8 108-7-40c-4-22-17-67-28-100-10-33-28-103-38-155l-18-95-19 3c-10 2-29 10-41 17l-21 14-12 70-13 70 6 148c3 81 8 156 12 166l7 17h-8c-5 0-54-65-109-143L545 615l-70-72-71-71-41-11-41-11-18 6c-11 4-27 14-36 22l-18 15v74l19 17 18 17 13-16 12-15h22c44 0 110 60 239 215 189 230 250 279 301 242l17-13-20-79c-26-99-41-203-40-275v-55l23 61c12 33 39 91 59 128 20 36 37 73 37 81 0 7 5 17 10 20l10 6 35-11 35-12 1-101 1-102 10 35c88 300 191 518 300 636l43 46 50 29 50 29h86l29-15zm155-155c15-6 42-10 61-10h34v-8c0-5-7-32-15-60l-16-51-25 9c-14 6-40 10-57 10h-32l-25-20-25-19-12 11-13 10v164l28 10 27 10 22-23c12-13 34-28 48-33zm-225-57v-77l-26-27-26-28-26 10-25 10-31-7c-17-3-39-14-50-23l-18-16 23 40c52 90 143 193 172 195h7v-77zm249-122 14-9-12-59c-7-32-15-89-19-128l-7-70-16-3c-8-1-28 2-44 8l-28 10 5 76 5 76-8-14c-16-28-47-157-54-222l-7-66h-37l-20 26-21 27v46c0 42 17 127 35 174l7 17h-19c-11 0-27 6-37 13l-18 14 33 21c19 12 43 28 55 37l21 15 17-6 17-7-5-14c-4-8-9-27-12-41l-5-27 23 30c12 17 35 42 49 58l27 27h24c13 0 29-4 37-9zm-299-89 20-25v-46c0-65-25-164-61-239l-31-64-39-39-39-39h-87l-19 21-19 21 1 87v86l31 65c17 36 42 78 55 94l25 29 27-7 27-7 6-15 6-16-35-71-36-72-12-58-12-59 6-24c4-13 11-24 16-24h10v23c0 12 15 54 33 92 35 72 61 145 72 204l7 34-17-7-18-6-13 11-14 11v59l22 8c11 4 32 6 45 3l23-4 20-26zm-419-44-9-23-23 3c-13 1-41 4-61 5l-38 2v11c0 20 13 24 76 24h63l-8-22zm1204-226c27-13 60-32 72-44l23-21 6-34 6-34-18-20-17-19-29 34-28 35-58 22-57 23h-275v26c0 56 14 60 185 57l140-3 50-22zm-535-45c0-13-6-30-12-38l-13-15-75-23c-92-29-236-95-314-145-32-20-60-35-63-32-8 7 128 115 200 158 66 40 240 117 265 118h12v-23zM675 671c-3-6-11-11-17-11h-10l12 15c14 17 26 13 15-4zm-295 889v-250h80v500h-80v-250zm1726-493c-30-39-61-109-70-155l-6-34 13 4c6 3 28 26 48 52l37 48 9 59 10 59h-8c-4 0-19-15-33-33z"/></g><g fill="#090703" transform="matrix(.1 0 0 -.1 0 256)"><path d="M780 2216v-95l-323-3-324-3-41-27-41-28-26-44-26-44 3-418 3-419 21-40 21-40 53-32 54-33h226v-20H0V580h187v-87l22-36 21-35 42-17 42-16 35 6c19 4 53 16 74 27l39 20 67 69 68 69h78l13-77 12-78 18-24c28-38 64-61 104-67l37-6 25 25 26 26v70l9 5 9 6 13-17c31-36 118-55 159-33l18 10 11 32c5 18 13 54 17 81l6 47 40-40 39-41-21-26c-24-31-25-51-4-81l15-22h52l61 39c112 70 273 144 359 165l27 6v-36l28-26c35-33 65-48 95-48h24l24 19 25 19 24 54c14 29 29 57 35 61l10 8 90-5 90-5 49-17 48-17 20-32 19-33 24-6 25-6 30 15 30 15 15 30 15 29v68l-26 39c-15 21-34 44-43 51-9 6-25 18-35 26l-19 14 32 46c17 25 49 83 72 129l40 83-4 53-4 52-21 23-22 23v180l36 42 35 42-3 32-3 33-31 20-32 20-3 201-4 201-27 39c-34 48-81 81-144 100l-47 14h-402l-45-11c-25-5-62-21-82-34-21-14-40-25-43-25s-5 13-5 30v30l-187 2-188 3-3 93-3 92H780v-94zm380-71v-95l193-2 192-3v-240l-193-3-192-2 2-243 3-242 27-3 28-3 2 218 3 218h320v-229l-56-16-56-17-44-30c-24-17-63-52-87-78-46-51-155-228-172-281l-12-34h-66c-37 0-84 5-104 10l-36 10-31 36-31 35v1089h310v-95zm-392-583 2-484-50-45c-28-25-91-95-142-157-50-61-114-135-142-163l-50-53H70v240h390v159l-149 3-150 3-28 21c-15 11-36 36-45 55l-18 34v778l20 31c18 30 40 46 80 60 8 2 146 4 305 3l290-2 3-483zm1481 473c16-8 40-28 55-45l26-32v-396l-27-18c-15-9-36-27-46-38-23-26-104-189-119-238l-11-37-28-10-29-10v10c0 5 9 42 20 81l20 73v86l-16 25c-20 30-64 54-99 54h-25l-53-36-52-36-32 6c-18 3-48 9-67 12l-33 6-21-26-20-26-33 29-32 30 6 52 6 52 23 24c13 14 35 31 50 39l27 14h271v120h-60v-60h-320v191l20 38 19 38 33 22 33 21h486l28-15zm170-529 11-13-15-13c-69-57-181-351-200-525l-7-60 27 38c28 41 62 111 75 158l9 29-10 6-10 6 12 14 11 14h22c12 0 31-6 41-14l19-14-1-36-1-36-43-86-44-87-47-50-46-50-29 7c-37 10-53 27-63 67l-8 34-1-32-1-32-27-21-28-22-44 5-45 5-14 18-14 19 5 73 4 73 34 66 34 66 35 28 35 29 34 3 33 4 20 59c11 32 37 96 58 140l39 81 36 32 36 31h57l11-14zm-379-41 23-24-6-48c-3-26-29-122-57-213-63-204-116-406-125-482l-7-58h21c26 0 26-4-3-60l-22-45-25-3-24-3-23 21-22 21v47c0 112 37 276 126 565 31 99 53 181 51 183-3 3-20-4-38-15l-34-21h-104l-15 22c-18 25-20 56-7 77l9 15 17-14 16-13 43-1 44-1 54 37c63 45 77 46 108 13zm-420-34c14-10 26-26 28-35l3-16h-92l-39-20c-158-81-342-424-424-790l-23-105-30-3-31-3-26 23-26 23-10 54c-6 29-10 88-11 130l-1 76-13-50c-8-27-22-79-33-115s-25-98-32-138l-12-72h-13c-8 0-25 5-39 11l-25 12-10 26c-6 14-15 60-20 101l-10 75 9 135c4 74 7 136 6 137s-37-49-81-110c-43-62-105-144-137-183l-58-70-46-34-46-33-42-4-41-5-22 21c-13 12-26 33-29 47l-7 25 12 25c6 14 18 27 28 31l17 7 4-12 4-12h62l39 27 39 27 144 172c188 224 214 246 280 230l26-7-5-32c-3-18-14-75-25-127s-23-129-26-170l-6-75 24 55c13 30 42 92 66 138l42 82h22c12 0 32-7 44-16l22-15-5-87-6-87 50 150 51 150 60 120 59 120 53 69 53 69 49 34c26 18 62 37 80 42l31 10 35-5c19-3 46-13 60-23zm100-116 24-25 34-10 34-9 29 6c16 3 29 4 29 1 0-12-33-114-39-120l-7-8-38 11-38 11-23-6c-13-3-30-13-39-21l-15-15-14 6-15 5-6 31c-3 17-6 56-6 87v57l28 11c38 15 36 16 62-12zm-170-76v-60l-14-34-14-33-22-12-21-11-22 7c-31 11-69 5-90-14-9-8-20-12-23-9-11 10 83 141 136 191l50 47 10-6 10-6v-60zm228-130 32-11-5-21c-16-71-24-120-30-179l-7-68h-54l-23 16-23 17 6 56 6 56-21-65c-11-36-22-95-26-132l-6-68-13-11-13-10-21 11-22 12-14 34-15 35 7 52c4 29 15 76 24 105l17 52h-21c-22 0-46 17-46 32 0 4 5 8 11 8s29 14 50 31l39 31 17-4 18-4-1-30-2-31 46 49c50 53 47 52 90 37zm-308-74 29-15 10-35 9-35-9-65c-20-143-94-281-172-321l-28-15-34 7c-43 8-56 23-65 76l-8 43 9 60 10 60 29 60c29 59 72 115 90 115 5 0 21-11 36-24l28-23-26-44c-14-24-35-70-47-102l-21-58v-57l1-57 18 50c10 28 35 86 54 130 20 44 39 99 43 122l6 41-23 4-24 3-9 27-10 27 19 21 18 20h19c10 0 32-7 48-15zm-399-67-9-23-23 3c-13 1-41 4-61 5l-38 2v11c0 20 13 24 76 24h63l-8-22zm1118-198 63-11 48-24 47-24 16-25 17-25v-67l-12-12c-18-18-32-15-43 11l-10 22-60 30-60 30-153 3-153 4 7 36c4 21 9 40 13 44 15 16 196 21 280 8zm-452-114-5-13-62-17c-94-27-218-81-320-142-51-30-95-54-98-54-4 0 16 23 43 50 85 87 218 167 365 221l75 27 3-30c2-16 1-36-1-42zM680 680v-20h-31l11 20c6 11 13 20 15 20 3 0 5-9 5-20zm-300 875v-245h80v490h-80v-245zm1721-505c-32-44-65-130-59-155l3-16 39 53 40 52 8 50c4 28 6 52 3 54-2 2-17-15-34-38z"/></g></g></svg>